<svg width="60" height="60" viewBox="0 0 60 60" fill="none" xmlns="http://www.w3.org/2000/svg">
<g id="directions_car_filled">
<g id="Vector">
<path d="M47.3 12.525C46.8 11.05 45.4 10 43.75 10H16.25C14.6 10 13.225 11.05 12.7 12.525L7.5 27.5V47.5C7.5 48.875 8.625 50 10 50H12.5C13.875 50 15 48.875 15 47.5V45H45V47.5C45 48.875 46.125 50 47.5 50H50C51.375 50 52.5 48.875 52.5 47.5V27.5L47.3 12.525ZM17.125 15H42.85L45.45 22.5H14.525L17.125 15ZM47.5 40H12.5V27.5H47.5V40Z" fill="#FF8A00"/>
<path d="M18.75 37.5C20.8211 37.5 22.5 35.8211 22.5 33.75C22.5 31.6789 20.8211 30 18.75 30C16.6789 30 15 31.6789 15 33.75C15 35.8211 16.6789 37.5 18.75 37.5Z" fill="#FF8A00"/>
<path d="M41.25 37.5C43.3211 37.5 45 35.8211 45 33.75C45 31.6789 43.3211 30 41.25 30C39.1789 30 37.5 31.6789 37.5 33.75C37.5 35.8211 39.1789 37.5 41.25 37.5Z" fill="#FF8A00"/>
</g>
</g>
</svg>
